<?xml version="1.0" encoding="iso-8859-1"?>
<!-- Generator: Adobe Illustrator 23.0.4, SVG Export Plug-In . SVG Version: 6.00 Build 0)  -->
<svg version="1.1" xmlns="http://www.w3.org/2000/svg" xmlns:xlink="http://www.w3.org/1999/xlink" x="0px" y="0px"
	 viewBox="0 0 64 64" style="enable-background:new 0 0 64 64;" xml:space="preserve">
<g id="time-07">
	<path style="fill:#4E2600;" d="M13.32,37.722h1.965c0.085,1.583,0.327,3.124,0.712,4.609h-2.015
		C13.627,40.84,13.398,39.301,13.32,37.722z M64,36.459c0,13.982-11.375,25.356-25.356,25.356c-10.13,0-18.888-5.973-22.946-14.581
		h2.191c3.905,7.49,11.74,12.619,20.755,12.619c12.9,0,23.395-10.495,23.395-23.395S51.544,13.064,38.644,13.064
		c-8.026,0-15.12,4.064-19.335,10.241h-2.335c1.169-1.92,2.592-3.667,4.213-5.208l-1.688-1.688l-1.492,1.492l-1.387-1.387
		l4.371-4.371l1.387,1.387l-1.492,1.492l1.779,1.779c3.395-2.765,7.513-4.668,12.027-5.379V8.903h-2.586
		c-0.542,0-0.981-0.439-0.981-0.981V3.166c0-0.542,0.439-0.981,0.981-0.981h13.08c0.542,0,0.981,0.439,0.981,0.981v4.756
		c0,0.542-0.439,0.981-0.981,0.981h-2.586v2.511C54.707,13.318,64,23.823,64,36.459z M33.085,6.941h2.586h5.945h2.586V4.146H33.085
		V6.941z M38.644,11.103c0.671,0,1.334,0.034,1.992,0.086V8.903h-3.984v2.286C37.31,11.137,37.973,11.103,38.644,11.103z
		 M15.534,32.818c0.25-1.595,0.665-3.137,1.221-4.609h-2.083c-0.511,1.48-0.89,3.02-1.12,4.609H15.534z M22.592,24.777H5.945v1.961
		h16.647V24.777z M19.025,34.289H0v1.961h19.025V34.289z M21.403,43.802H4.756v1.961h16.647V43.802z M38.644,40.71
		c-2.344,0-4.251-1.907-4.251-4.251s1.907-4.251,4.251-4.251c2.005,0,3.68,1.4,4.125,3.27h13.413v1.961H42.769
		C42.323,39.31,40.649,40.71,38.644,40.71z M38.644,38.748c1.262,0,2.289-1.027,2.289-2.289c0-1.262-1.027-2.289-2.289-2.289
		s-2.289,1.027-2.289,2.289C36.355,37.721,37.382,38.748,38.644,38.748z"/>
</g>
<g id="Layer_1">
</g>
</svg>
